# xmcd
#
# Track frame offsets:
#	150
#	24215
#	39380
#	53745
#	75924
#	91211
#	110050
#	126463
#	148273
#	165401
#	184263
#	197520
#	214185
#	237580
#	257839
#	281295
#
# Disc length: 4019 seconds
# Revision: 1
# Processed by: cddbd v1.5.2PL0 Copyright (c) Steve Scherf et al.
# Submitted via: dBpowerAMP V12.0
#
DISCID=dc0fb110
DTITLE=Various Artist - New Country Music Vol. 2
DYEAR=2017
DGENRE=Country Sampler
TTITLE0=Reckless Kelly - Long Light Moon
TTITLE1=Wallek Bros. - Someday Soon
TTITLE2=William Clark Green - Hangin' Around
TTITLE3=Willie Logan - Lighten Up
TTITLE4=Hackensaw Boys - Don't Bet Against Me
TTITLE5=American Aquarium - Man I'm Supposed To Be
TTITLE6=Cody McCarver - Believe
TTITLE7=Miko Marks - Feelin' The Rain
TTITLE8=Amelia Curran - Coming For You
TTITLE9=Irion - Ground Zero
TTITLE10=Jim Pyle - Turn Myself Around
TTITLE11=Tempesta - Feels Like Yesterday
TTITLE12=Mark Selby - Leveler, Reveler
TTITLE13=US Rails - He's Still In Love With You
TTITLE14=Delta Moon - Sunshine
TTITLE15=Steve Fister - Last Of Me
EXTD=
EXTT0=
EXTT1=
EXTT2=
EXTT3=
EXTT4=
EXTT5=
EXTT6=
EXTT7=
EXTT8=
EXTT9=
EXTT10=
EXTT11=
EXTT12=
EXTT13=
EXTT14=
EXTT15=
PLAYORDER=
